<svg version="1.1" id="Layer_1" xmlns="http://www.w3.org/2000/svg" xmlns:xlink="http://www.w3.org/1999/xlink" x="0px" y="0px"
	 width="100%" viewBox="0 0 1024 1024" enable-background="new 0 0 1024 1024" xml:space="preserve">
<path fill="#000000" opacity="1.000000" stroke="none" 
	d="
M472.679810,325.678955 
	C484.482910,313.891998 496.035065,302.352692 507.597900,290.824158 
	C512.806152,285.631317 514.039551,285.630585 519.369080,290.954315 
	C547.309082,318.863831 575.235107,346.787292 603.168640,374.703247 
	C608.012329,379.543854 608.030212,379.550171 612.876038,374.721497 
	C627.503967,360.145111 642.130859,345.567688 656.737427,330.969818 
	C660.838257,326.871368 662.616943,326.763336 666.690491,330.821472 
	C679.320801,343.404114 691.934326,356.003906 704.490112,368.660767 
	C705.880127,370.061981 706.856323,371.873627 708.450989,374.087006 
	C709.329285,372.227356 709.622864,371.842438 709.691956,371.420715 
	C710.102051,368.917267 708.706482,365.286530 711.923401,364.366852 
	C716.358215,363.098938 721.127075,363.088745 725.658203,364.541534 
	C726.792297,364.905182 727.185608,366.243744 727.220276,367.476257 
	C727.267029,369.141266 727.555481,370.860352 727.253662,372.464722 
	C724.638184,386.367889 730.091125,396.562317 740.810425,405.206451 
	C747.903870,410.926697 753.930664,417.978973 760.364441,424.504517 
	C764.251953,428.447449 764.077576,429.895966 759.566589,434.400391 
	C755.024353,438.935974 753.677551,439.085663 749.723877,435.135498 
	C722.140625,407.576538 694.580566,379.994446 667.013367,352.419495 
	C662.085449,347.490204 661.584839,347.450409 656.645142,352.383179 
	C629.414673,379.575684 602.201111,406.785126 574.989014,433.996124 
	C569.908997,439.075897 563.127625,437.412567 560.965271,430.527710 
	C560.109680,427.803650 561.828125,426.160828 563.493713,424.475525 
	C573.330078,414.522064 583.029419,404.428101 593.059326,394.673889 
	C596.354248,391.469513 596.311646,389.572784 593.050903,386.343231 
	C567.955627,361.488068 543.046204,336.445251 518.063049,311.476715 
	C513.617126,307.033417 512.884216,307.061981 508.377899,311.570740 
	C483.530304,336.431885 458.766327,361.377563 433.762451,386.080475 
	C430.058746,389.739594 430.329926,391.758301 433.915222,395.178741 
	C443.798462,404.607574 453.325378,414.410828 462.956543,424.102448 
	C467.300415,428.473572 467.218658,429.648682 462.585175,434.300507 
	C457.942230,438.961853 456.688751,439.096436 452.369171,434.785706 
	C425.005890,407.478516 397.678680,380.135223 370.341736,352.801666 
	C364.897949,347.358643 364.677948,347.336243 359.290619,352.722107 
	C332.192444,379.812866 305.104462,406.913818 278.010895,434.009186 
	C272.819244,439.201141 266.302643,437.545288 264.092316,430.481476 
	C263.249817,427.788971 264.831146,426.051819 266.511139,424.367401 
	C276.389984,414.462616 286.204315,404.491577 296.208344,394.714752 
	C298.678986,392.300262 299.822510,389.828979 299.692169,386.376495 
	C299.472321,380.552673 299.720551,374.712646 299.600250,368.882996 
	C299.526184,365.295197 301.045746,363.592621 304.642578,363.736084 
	C305.807007,363.782562 306.975098,363.733185 308.141510,363.733429 
	C316.629211,363.735199 316.629211,363.735657 317.430664,372.445282 
	C321.775726,369.655365 324.863525,365.804108 328.313873,362.420959 
	C338.660187,352.276031 348.854065,341.975555 359.102661,331.731018 
	C364.366150,326.469574 365.353699,326.497711 370.780304,331.927277 
	C385.268799,346.423431 399.793854,360.883240 414.231537,375.429749 
	C415.505646,376.713440 416.247498,378.525482 417.134491,379.930481 
	C422.336151,376.887756 424.802063,373.240234 427.965698,370.377228 
	C429.446228,369.037415 430.639221,367.339722 432.230988,366.169373 
	C444.718109,356.988251 450.751404,345.286987 448.112183,329.381073 
	C447.202240,323.897034 448.978821,322.909363 454.811523,322.839691 
	C454.978119,322.837708 455.144806,322.841003 455.311432,322.839935 
	C464.218323,322.783966 464.218323,322.783966 466.147614,331.408691 
	C468.853485,330.112183 470.451324,327.770721 472.679810,325.678955 
z"/>
<path fill="#000000" opacity="1.000000" stroke="none" 
	d="
M289.201416,527.263062 
	C272.894043,533.947754 257.680786,541.928101 242.976913,551.254211 
	C243.679916,545.745361 246.299744,541.456299 249.424133,537.437561 
	C259.064301,525.037964 271.846527,516.647461 285.611481,509.679199 
	C315.290527,494.654663 347.064362,486.071411 379.531006,479.761200 
	C402.740326,475.250275 426.144836,471.871704 449.715942,470.245056 
	C480.107819,468.147736 510.532684,466.742828 541.044373,468.387268 
	C557.505188,469.274414 573.961182,469.941437 590.381714,471.540710 
	C613.096863,473.753052 635.622498,477.150848 657.918091,481.932800 
	C688.615967,488.516846 718.656921,497.190674 746.320251,512.531982 
	C760.121948,520.186035 772.912048,529.152771 781.160889,543.188843 
	C783.334595,546.887573 783.461731,547.355347 783.735107,550.914551 
	C782.618958,551.627991 781.834412,550.773560 781.069031,550.249390 
	C751.885986,530.263428 719.002808,519.108276 685.175171,510.357727 
	C653.207275,502.088257 620.653015,497.237946 587.796692,494.060822 
	C550.759216,490.479401 513.638428,489.845886 476.546753,491.475647 
	C421.339539,493.901398 366.820160,501.285645 313.969971,518.299011 
	C305.739685,520.948425 297.696259,524.178345 289.201416,527.263062 
z"/>
<path fill="#000000" opacity="1.000000" stroke="none" 
	d="
M601.312134,584.349182 
	C606.259338,587.678223 610.270935,588.046387 615.743347,585.019226 
	C622.109070,581.497864 629.597290,586.553101 630.169861,593.934998 
	C630.734802,601.217957 630.566589,608.560242 630.645569,615.877319 
	C630.680908,619.153748 628.567749,620.130371 625.699829,620.085449 
	C622.897705,620.041504 620.772705,619.214294 620.777161,615.851929 
	C620.784180,610.527283 620.757996,605.202515 620.721008,599.877991 
	C620.698486,596.646851 619.996216,593.357666 616.100098,593.537170 
	C612.669617,593.695312 610.431702,596.251160 610.326782,599.904114 
	C610.183533,604.892151 610.157654,609.890198 610.300293,614.877747 
	C610.412964,618.817078 608.563232,620.296448 604.831909,620.082520 
	C601.192078,619.873779 600.110474,618.063599 600.378357,614.486206 
	C600.737793,609.687561 600.671997,604.836731 600.457458,600.023071 
	C600.324951,597.050049 599.921997,593.439880 595.902771,593.492859 
	C592.061768,593.543579 589.990051,596.155701 589.971863,600.109680 
	C589.950500,604.768677 589.907776,609.428528 589.973389,614.086609 
	C590.025818,617.810547 588.844849,620.172180 584.585999,620.118347 
	C580.448730,620.066101 579.717896,617.650757 579.761841,614.197205 
	C579.859192,606.544128 579.753357,598.888611 579.799194,591.234497 
	C579.812744,588.974854 579.233948,586.247437 582.099670,585.224976 
	C585.011292,584.186157 587.688477,584.641235 588.972229,588.034973 
	C592.897461,585.557739 596.411194,583.215088 601.312134,584.349182 
z"/>
<path fill="#000000" opacity="1.000000" stroke="none" 
	d="
M685.963928,455.927185 
	C680.654236,455.926361 675.836182,455.830261 671.024231,455.959045 
	C666.857544,456.070526 664.887695,454.317169 664.963074,450.057281 
	C665.095154,442.587006 665.106873,435.113464 665.070679,427.641785 
	C665.051392,423.667053 666.918335,421.905426 670.850586,421.934875 
	C678.322266,421.990753 685.795105,421.964081 693.266846,421.902618 
	C697.023621,421.871735 698.600220,423.475189 698.479980,427.364258 
	C698.254395,434.663818 698.397522,441.974579 698.374023,449.280640 
	C698.354370,455.389313 697.915527,455.842651 691.937744,455.934570 
	C690.111694,455.962646 688.284790,455.932892 685.963928,455.927185 
z"/>
<path fill="#000000" opacity="1.000000" stroke="none" 
	d="
M353.814331,421.956848 
	C361.025024,422.215210 361.335327,422.514526 361.352448,429.146149 
	C361.370483,436.135834 361.161804,443.132690 361.421783,450.112671 
	C361.587158,454.552216 359.690155,456.034760 355.522522,455.953278 
	C348.369232,455.813385 341.210205,455.855896 334.055298,455.949310 
	C329.941406,456.003021 327.928284,454.407074 328.030853,450.038605 
	C328.202698,442.720306 328.169098,435.392334 328.012177,428.072968 
	C327.914917,423.536072 329.994965,421.804077 334.368225,421.904816 
	C340.689026,422.050415 347.015472,421.950653 353.814331,421.956848 
z"/>
<path fill="#000000" opacity="1.000000" stroke="none" 
	d="
M628.639282,422.146667 
	C636.905151,422.019043 644.732727,422.062683 652.556030,421.901428 
	C656.835022,421.813232 658.494080,423.618500 658.366943,427.911499 
	C658.145264,435.399139 658.181030,442.900696 658.350830,450.390930 
	C658.436829,454.184998 656.985901,455.969238 653.156128,455.941315 
	C645.496033,455.885468 637.835266,455.910553 630.174744,455.927917 
	C626.663696,455.935883 625.005249,454.251373 625.025879,450.718811 
	C625.071594,442.892212 625.026062,435.065125 625.036255,427.238251 
	C625.039307,424.924408 625.574097,422.907990 628.639282,422.146667 
z"/>
<path fill="#000000" opacity="1.000000" stroke="none" 
	d="
M351.264893,593.416077 
	C354.642609,600.881226 353.083405,608.339233 352.646057,615.691284 
	C352.517761,617.847900 350.092499,618.557983 348.138062,619.134521 
	C342.266693,620.866394 336.215698,620.984436 330.319824,619.937561 
	C322.944702,618.627930 317.339569,614.329895 315.136047,606.998657 
	C312.120941,596.967407 312.213257,586.989868 320.125244,579.011536 
	C327.945526,571.125549 337.743378,571.172852 347.613037,574.201477 
	C353.223175,575.923035 354.327789,579.300781 351.613251,584.943665 
	C348.439484,583.873779 345.259888,582.532043 341.948975,581.738159 
	C333.189850,579.637817 325.636322,584.417969 324.333099,592.657532 
	C322.659546,603.238525 326.991608,610.550293 335.560577,611.607544 
	C341.063019,612.286438 342.870544,610.521606 342.806549,605.159485 
	C342.769409,602.046448 341.422058,601.005859 338.550476,601.159302 
	C335.407593,601.327271 332.752472,600.703613 332.877380,596.714172 
	C333.007324,592.565308 336.032440,592.631104 338.956299,592.732727 
	C342.935669,592.870972 346.942993,592.253784 351.264893,593.416077 
z"/>
<path fill="#000000" opacity="1.000000" stroke="none" 
	d="
M550.232666,412.741302 
	C550.796692,417.906403 548.950623,419.761566 544.020508,419.503662 
	C536.728088,419.122162 529.398560,419.278625 522.090027,419.440979 
	C518.189697,419.527588 516.717407,417.841125 516.766907,414.088013 
	C516.867737,406.444763 516.871399,398.798218 516.765198,391.155121 
	C516.714661,387.514862 518.540588,385.960419 521.903748,385.934784 
	C529.713745,385.875214 537.524658,385.869202 545.334778,385.914856 
	C548.853882,385.935394 550.304382,387.852722 550.253418,391.339630 
	C550.151428,398.317932 550.229248,405.298889 550.232666,412.741302 
z"/>
<path fill="#000000" opacity="1.000000" stroke="none" 
	d="
M401.359619,448.839874 
	C402.045685,454.299622 399.920898,456.227875 394.890961,456.015289 
	C387.913239,455.720337 380.914093,455.889862 373.924561,455.932404 
	C370.253662,455.954742 368.494110,454.558319 368.605988,450.572968 
	C368.825409,442.757111 368.767914,434.929077 368.628387,427.109589 
	C368.562836,423.437561 370.235168,421.962463 373.708099,421.968079 
	C381.363373,421.980438 389.018707,421.952667 396.674011,421.941284 
	C399.985199,421.936371 401.444519,423.528564 401.393158,426.893250 
	C401.283936,434.047821 401.360046,441.205261 401.359619,448.839874 
z"/>
<path fill="#000000" opacity="1.000000" stroke="none" 
	d="
M494.983704,423.918732 
	C511.729065,423.998138 510.058044,422.450897 510.128387,438.745544 
	C510.147766,443.236298 510.083466,447.727539 510.112335,452.218201 
	C510.134155,455.611938 508.877899,457.476929 505.116455,457.409393 
	C497.301392,457.269073 489.481293,457.300873 481.664886,457.396637 
	C478.405884,457.436554 476.679443,456.315338 476.714142,452.809509 
	C476.793121,444.826538 476.770508,436.841766 476.698822,428.858521 
	C476.668732,425.508575 478.222290,423.956207 481.514191,423.959778 
	C485.838715,423.964447 490.163300,423.934296 494.983704,423.918732 
z"/>
<path fill="#000000" opacity="1.000000" stroke="none" 
	d="
M510.148315,394.197571 
	C510.145813,401.000916 510.068207,407.330963 510.167999,413.658203 
	C510.228485,417.494385 508.978394,419.552185 504.696747,419.440582 
	C497.040802,419.241150 489.374176,419.300873 481.715149,419.433350 
	C478.087311,419.496094 476.615112,418.021667 476.673157,414.394348 
	C476.798401,406.568634 476.760162,398.738831 476.678986,390.911835 
	C476.644196,387.558258 478.214294,385.935699 481.463318,385.920959 
	C489.290619,385.885406 497.118683,385.860443 504.945557,385.929443 
	C510.382294,385.977386 510.182251,389.941620 510.148315,394.197571 
z"/>
<path fill="#000000" opacity="1.000000" stroke="none" 
	d="
M533.003784,423.921509 
	C537.492249,423.943939 541.485107,423.930298 545.476440,424.003052 
	C548.709045,424.061981 550.272339,425.661652 550.235535,429.015839 
	C550.149719,436.833771 550.188171,444.653442 550.225708,452.472168 
	C550.241150,455.689453 549.009399,457.432953 545.514465,457.391052 
	C537.530334,457.295349 529.543335,457.292450 521.559326,457.393860 
	C518.084656,457.437988 516.799316,455.750610 516.810913,452.514984 
	C516.838928,444.696167 516.864685,436.876526 516.779480,429.058472 
	C516.739380,425.386475 518.636902,423.990540 522.027222,423.983917 
	C525.520691,423.977112 529.014099,423.944214 533.003784,423.921509 
z"/>
<path fill="#000000" opacity="1.000000" stroke="none" 
	d="
M491.692871,574.795837 
	C492.067383,579.147766 492.300507,583.131775 492.288300,587.115051 
	C492.279877,589.869751 493.496979,590.860291 496.163727,591.102356 
	C507.470001,592.128479 507.815094,591.869202 507.970673,580.452148 
	C508.018097,576.970825 507.410187,573.072510 512.822815,573.042542 
	C516.339172,573.023071 518.426697,574.043091 518.369446,578.181946 
	C518.201416,590.334656 518.231812,602.492188 518.358887,614.645935 
	C518.398560,618.439026 516.995728,620.192993 513.120300,620.105164 
	C509.290497,620.018494 507.781494,618.179688 507.929688,614.451416 
	C508.068390,610.961060 507.902008,607.459473 507.924438,603.963196 
	C507.940094,601.518005 506.908142,600.189697 504.345551,600.308716 
	C504.013672,600.324219 503.679810,600.289368 503.346954,600.292297 
	C490.137543,600.409119 492.583923,598.906250 492.313995,610.930603 
	C492.280365,612.428528 492.247833,613.929626 492.306061,615.425720 
	C492.443817,618.965393 490.380890,620.107544 487.275055,620.095947 
	C484.346252,620.084961 481.866913,619.399963 481.858368,615.764038 
	C481.828217,602.943359 481.704529,590.120972 481.885071,577.303040 
	C481.947388,572.878418 485.713531,571.866455 491.692871,574.795837 
z"/>
<path fill="#000000" opacity="1.000000" stroke="none" 
	d="
M413.839569,577.117004 
	C413.769135,573.574829 413.624329,570.482727 417.849243,569.896606 
	C422.052704,569.313354 424.034851,571.080933 424.069916,576.007996 
	C424.158844,588.495178 424.144135,600.983398 424.105530,613.471008 
	C424.098083,615.884094 424.695831,618.818787 421.481995,619.776306 
	C418.708588,620.602539 416.175934,620.007324 414.964050,616.960083 
	C412.307739,618.051453 410.438141,619.822998 407.896271,620.263977 
	C400.426788,621.559753 395.044403,618.662903 392.729156,611.388550 
	C390.767212,605.224487 390.875183,598.865845 393.174927,592.768738 
	C395.917267,585.498169 402.828857,582.585876 410.217133,585.287048 
	C411.119324,585.616882 412.049805,585.869568 413.024628,586.176025 
	C414.425659,583.184265 413.598633,580.326538 413.839569,577.117004 
M411.368683,594.301575 
	C406.457489,591.352539 403.969452,592.277100 402.159058,597.638611 
	C400.821960,601.598511 400.996552,605.486572 402.812531,609.202271 
	C404.533539,612.723572 407.373535,613.300049 410.536163,611.000610 
	C414.612701,608.036743 415.285614,600.145996 411.368683,594.301575 
z"/>
<path fill="#000000" opacity="1.000000" stroke="none" 
	d="
M541.959534,619.544128 
	C532.656433,614.711426 529.428772,602.345154 534.574036,592.554932 
	C538.703247,584.697998 550.562500,581.528015 559.019409,586.020630 
	C565.294617,589.354187 568.217224,597.770142 566.349792,607.128601 
	C564.812683,614.831482 559.539368,619.878784 552.230042,620.386902 
	C548.926025,620.616516 545.577454,620.720398 541.959534,619.544128 
M556.675415,601.596130 
	C555.940491,593.772522 551.844971,590.552612 546.372314,593.515564 
	C543.139099,595.266052 542.595154,598.419067 542.401733,601.625916 
	C542.016541,608.012573 544.883301,612.441406 549.328064,612.561157 
	C553.489563,612.673401 556.259338,608.850037 556.675415,601.596130 
z"/>
<path fill="#000000" opacity="1.000000" stroke="none" 
	d="
M341.653137,483.791687 
	C338.063385,484.822571 334.840546,485.661682 331.662598,486.645721 
	C329.200867,487.407959 328.118408,486.342163 328.103485,484.051666 
	C328.061127,477.557678 328.099792,471.062683 328.166718,464.568695 
	C328.198883,461.447144 330.058289,460.102600 332.993225,460.094421 
	C340.987030,460.072144 348.981140,460.074646 356.974854,460.114349 
	C359.722870,460.128021 361.105225,461.397980 361.374786,464.348907 
	C362.617676,477.955963 362.682373,477.949036 349.733185,481.522064 
	C347.167084,482.230133 344.603912,482.948639 341.653137,483.791687 
z"/>
<path fill="#000000" opacity="1.000000" stroke="none" 
	d="
M698.176270,485.417908 
	C696.727173,487.819000 695.005981,486.598816 693.560242,486.217682 
	C685.198120,484.013092 676.870850,481.676422 668.531311,479.385925 
	C668.371094,479.341919 668.180603,479.357849 668.046448,479.276306 
	C661.873108,475.523346 666.031372,469.645020 665.215393,464.809845 
	C664.669617,461.575684 667.055725,460.082367 670.223572,460.078857 
	C678.048096,460.070221 685.872559,460.057037 693.697083,460.066742 
	C696.968567,460.070801 698.504456,461.612854 698.425903,465.015350 
	C698.272217,471.670654 698.322388,478.330658 698.176270,485.417908 
z"/>
<path fill="#000000" opacity="1.000000" stroke="none" 
	d="
M666.608887,612.603149 
	C668.733093,612.093140 670.314148,610.948364 672.225342,611.313171 
	C674.586609,616.415649 673.852905,618.233765 668.699768,619.613708 
	C663.963196,620.881958 659.132263,620.653748 654.361084,619.904541 
	C652.785400,619.657104 651.202881,618.810974 649.848816,617.902771 
	C643.170715,613.423950 641.282959,600.475342 645.963257,591.885986 
	C649.756409,584.924500 658.821655,582.132996 666.838257,585.457703 
	C672.597290,587.846191 676.556091,595.574097 675.135498,601.511108 
	C674.381470,604.662292 672.005371,605.033447 669.388916,605.086792 
	C664.576294,605.184753 659.763123,605.262146 654.951111,605.384033 
	C654.678101,605.390930 654.413330,605.721802 654.146851,605.905151 
	C654.648499,612.520630 657.982361,614.390015 666.608887,612.603149 
M661.467957,598.541626 
	C662.842712,598.342163 664.808655,599.168762 665.233887,597.140564 
	C665.584167,595.469910 664.750427,593.871460 663.284546,592.846863 
	C661.429382,591.550110 659.435791,590.867554 657.255066,592.121033 
	C654.940613,593.451233 653.591675,595.260925 654.179993,598.554565 
	C656.516785,598.554565 658.646606,598.554565 661.467957,598.541626 
z"/>
<path fill="#000000" opacity="1.000000" stroke="none" 
	d="
M461.573853,586.164978 
	C465.088623,588.534424 466.319519,591.659607 466.359253,595.376709 
	C466.430481,602.041504 466.560730,608.706299 466.561859,615.371094 
	C466.562531,619.460632 463.613678,621.530579 459.876160,619.537598 
	C457.563782,618.304565 456.068542,618.698792 453.976440,619.546448 
	C448.520691,621.756897 442.142181,620.430664 439.269836,616.672791 
	C436.326355,612.821777 435.956268,608.651672 438.608124,604.576538 
	C441.598297,599.981567 446.743195,599.862122 451.457336,599.011353 
	C453.709686,598.604919 457.167572,599.740540 456.521057,595.563904 
	C455.984436,592.097473 453.157959,591.159668 450.091888,591.529846 
	C448.145782,591.764893 446.271667,592.640747 444.380646,593.275146 
	C442.370087,593.949646 440.072662,595.426697 439.048798,592.199768 
	C438.203461,589.535339 438.928894,587.159912 441.807617,586.076660 
	C448.253204,583.651001 454.741638,582.993652 461.573853,586.164978 
M453.265106,612.542053 
	C455.594543,611.264343 457.783875,609.477112 456.204651,606.731995 
	C454.772491,604.242554 452.092621,605.554749 449.933228,606.231812 
	C447.866943,606.879700 446.154327,608.211060 446.927490,610.532715 
	C447.809326,613.180664 450.078888,613.627380 453.265106,612.542053 
z"/>
<path fill="#000000" opacity="1.000000" stroke="none" 
	d="
M636.274902,377.274841 
	C643.590820,369.960541 650.742554,362.979187 657.682983,355.793732 
	C660.412476,352.967804 662.450989,352.457428 665.470459,355.547058 
	C676.410828,366.741638 687.573730,377.718536 698.633972,388.796204 
	C700.286499,390.451324 702.304199,392.123016 699.762268,394.620270 
	C697.315002,397.024414 695.577576,395.274445 693.870972,393.569397 
	C684.446350,384.152954 674.948975,374.806976 665.664917,365.253723 
	C663.000366,362.511902 661.209473,362.244415 658.416321,365.121521 
	C649.253540,374.559570 639.868347,383.782135 630.532288,393.050964 
	C628.831177,394.739807 627.170044,397.347534 624.333801,394.786560 
	C621.385620,392.124512 623.467346,390.060425 625.411316,388.105133 
	C628.933289,384.562622 632.486084,381.050751 636.274902,377.274841 
z"/>
<path fill="#000000" opacity="1.000000" stroke="none" 
	d="
M360.695801,365.735687 
	C351.345612,375.012726 342.269379,384.069824 333.115082,393.047333 
	C331.446381,394.683777 329.714020,397.363129 326.958008,394.457977 
	C324.390442,391.751434 326.604706,389.917999 328.353851,388.160339 
	C339.161346,377.299652 350.060211,366.529144 360.796783,355.599121 
	C363.474854,352.872742 365.461731,352.698608 368.222931,355.515991 
	C379.179626,366.695679 390.293304,377.721588 401.359619,388.793671 
	C403.101501,390.536469 404.823425,392.255005 402.233917,394.604736 
	C399.648285,396.950836 398.020142,394.871094 396.375000,393.231995 
	C387.054626,383.946198 377.647522,374.743378 368.509735,365.280731 
	C365.546234,362.211853 363.381409,362.234192 360.695801,365.735687 
z"/>
<path fill="#000000" opacity="1.000000" stroke="none" 
	d="
M552.352112,351.654907 
	C550.065369,355.833984 547.802307,354.900665 545.205505,352.273651 
	C535.849182,342.808533 526.310669,333.521576 517.053284,323.961670 
	C514.272705,321.090271 512.420166,321.252533 509.749176,323.986572 
	C500.681641,333.268127 491.463776,342.403717 482.232605,351.523529 
	C480.485199,353.249847 478.771576,356.387512 475.726501,353.448425 
	C472.788086,350.612274 475.434235,348.700409 477.278381,346.850220 
	C488.083344,336.010132 498.964478,325.245453 509.709137,314.346130 
	C512.414673,311.601562 514.477722,311.612183 517.195862,314.377075 
	C528.157227,325.527252 539.267029,336.531677 550.325378,347.586426 
	C551.380859,348.641541 552.612183,349.586639 552.352112,351.654907 
z"/>
<path fill="#000000" opacity="1.000000" stroke="none" 
	d="
M700.222778,607.715088 
	C697.523926,606.385315 695.066711,605.349609 692.695129,604.145447 
	C688.739624,602.137146 686.757751,598.760620 686.946899,594.404419 
	C687.138062,590.000610 689.566528,587.020203 693.693787,585.357483 
	C697.574585,583.793945 701.472473,583.678406 705.426331,584.893921 
	C709.833191,586.248657 710.683838,588.519470 708.590149,593.316895 
	C706.304016,593.795837 704.560059,592.110840 702.497131,591.657532 
	C700.190918,591.150818 697.846863,591.286499 696.900879,593.621521 
	C695.818909,596.292236 698.422852,596.856812 700.151917,597.679382 
	C701.804688,598.465576 703.546326,599.063110 705.211487,599.825378 
	C709.637451,601.851746 711.753601,605.270447 711.444702,610.187073 
	C711.148804,614.897705 708.692017,617.966309 704.336121,619.462280 
	C699.958740,620.965576 695.482483,620.828003 691.078735,619.535095 
	C688.689941,618.833801 686.927856,617.360107 686.800842,614.618164 
	C686.654053,611.447876 687.403687,609.589966 691.117859,611.443420 
	C692.880920,612.323303 694.830994,613.116333 696.760986,613.312561 
	C700.534546,613.696228 701.862793,611.605957 700.222778,607.715088 
z"/>
<path fill="#000000" opacity="1.000000" stroke="none" 
	d="
M629.566040,460.145508 
	C637.502563,460.086243 644.996399,460.125031 652.488098,460.013092 
	C656.624146,459.951324 658.452515,461.517181 658.380432,465.934753 
	C658.159973,479.452026 659.268433,477.021576 647.654358,475.035065 
	C641.755554,474.026093 635.863770,472.975372 629.973694,471.916290 
	C627.416931,471.456604 624.981873,470.825684 625.105652,467.420258 
	C625.218445,464.318054 624.471558,460.757385 629.566040,460.145508 
z"/>
<path fill="#000000" opacity="1.000000" stroke="none" 
	d="
M368.662537,467.098572 
	C367.952759,461.559509 370.346863,459.834045 375.215942,459.995789 
	C382.185425,460.227356 389.168457,460.052765 396.145721,460.046692 
	C399.111237,460.044098 401.462494,460.693176 401.351746,464.420288 
	C401.255524,467.659363 402.160370,471.133575 397.175415,471.891205 
	C388.978577,473.137085 380.845856,474.802063 372.677155,476.239410 
	C371.568024,476.434601 370.366974,476.670288 369.146515,475.732086 
	C368.150543,473.170166 368.893738,470.327301 368.662537,467.098572 
z"/>
<path fill="#000000" opacity="1.000000" stroke="none" 
	d="
M378.015198,616.460205 
	C376.818115,620.636902 373.831451,620.286926 371.014984,619.828735 
	C367.971741,619.333679 367.874634,616.852478 367.879150,614.419983 
	C367.894379,606.261658 367.954285,598.102722 367.867371,589.945374 
	C367.829010,586.341919 369.451019,584.767700 372.986908,584.822083 
	C376.480377,584.875916 378.136932,586.474304 378.104279,590.045166 
	C378.025146,598.701965 378.069092,607.359802 378.015198,616.460205 
z"/>
<path fill="#000000" opacity="1.000000" stroke="none" 
	d="
M377.565399,572.709106 
	C378.692383,576.270813 379.109833,579.480957 375.187195,580.912231 
	C372.803589,581.781860 370.156586,581.719727 368.381989,579.478394 
	C366.790741,577.468628 367.031982,575.023804 368.153625,572.925537 
	C369.441528,570.516479 371.937866,570.487549 374.267273,570.874390 
	C375.335175,571.051819 376.300568,571.846313 377.565399,572.709106 
z"/>
</svg>